<mxfile host="Electron" modified="2023-04-23T08:53:29.609Z" agent="Mozilla/5.0 (Windows NT 10.0; Win64; x64) AppleWebKit/537.36 (KHTML, like Gecko) draw.io/21.2.1 Chrome/112.0.5615.87 Electron/24.1.2 Safari/537.36" etag="Z9qkhY0A97oANIcU8hfD" version="21.2.1" type="device">
  <diagram name="Page-1" id="TE4RSyDuo3duO8tEqu5q">
    <mxGraphModel dx="1227" dy="764" grid="1" gridSize="10" guides="1" tooltips="1" connect="1" arrows="1" fold="1" page="1" pageScale="1" pageWidth="1600" pageHeight="900" math="0" shadow="0">
      <root>
        <mxCell id="0" />
        <mxCell id="1" parent="0" />
        <mxCell id="Lj92PHvefBwDU4czDofk-1" value="Thread 1" style="text;html=1;strokeColor=none;fillColor=none;align=center;verticalAlign=middle;whiteSpace=wrap;rounded=0;" parent="1" vertex="1">
          <mxGeometry x="280" y="160" width="60" height="30" as="geometry" />
        </mxCell>
        <mxCell id="Lj92PHvefBwDU4czDofk-2" value="Thread 2" style="text;html=1;strokeColor=none;fillColor=none;align=center;verticalAlign=middle;whiteSpace=wrap;rounded=0;" parent="1" vertex="1">
          <mxGeometry x="610" y="160" width="60" height="30" as="geometry" />
        </mxCell>
        <mxCell id="Lj92PHvefBwDU4czDofk-3" value="" style="endArrow=none;html=1;rounded=0;" parent="1" target="Lj92PHvefBwDU4czDofk-1" edge="1">
          <mxGeometry width="50" height="50" relative="1" as="geometry">
            <mxPoint x="310" y="560" as="sourcePoint" />
            <mxPoint x="750" y="400" as="targetPoint" />
          </mxGeometry>
        </mxCell>
        <mxCell id="Lj92PHvefBwDU4czDofk-4" value="" style="rounded=0;whiteSpace=wrap;html=1;" parent="1" vertex="1">
          <mxGeometry x="300" y="200" width="20" height="100" as="geometry" />
        </mxCell>
        <mxCell id="Lj92PHvefBwDU4czDofk-5" value="Executing" style="text;html=1;strokeColor=none;fillColor=none;align=center;verticalAlign=middle;whiteSpace=wrap;rounded=0;" parent="1" vertex="1">
          <mxGeometry x="240" y="200" width="60" height="30" as="geometry" />
        </mxCell>
        <mxCell id="Lj92PHvefBwDU4czDofk-6" value="Idle" style="text;html=1;strokeColor=none;fillColor=none;align=center;verticalAlign=middle;whiteSpace=wrap;rounded=0;" parent="1" vertex="1">
          <mxGeometry x="250" y="320" width="60" height="30" as="geometry" />
        </mxCell>
        <mxCell id="Lj92PHvefBwDU4czDofk-7" value="&lt;font style=&quot;font-size: 10px;&quot;&gt;Save state into PCB1&lt;/font&gt;" style="rounded=0;whiteSpace=wrap;html=1;" parent="1" vertex="1">
          <mxGeometry x="390" y="330" width="150" height="30" as="geometry" />
        </mxCell>
        <mxCell id="Lj92PHvefBwDU4czDofk-8" value="&lt;font style=&quot;font-size: 10px;&quot;&gt;Restore state from PCB2&lt;/font&gt;" style="rounded=0;whiteSpace=wrap;html=1;" parent="1" vertex="1">
          <mxGeometry x="390" y="380" width="150" height="30" as="geometry" />
        </mxCell>
        <mxCell id="Lj92PHvefBwDU4czDofk-9" value="&lt;font style=&quot;font-size: 10px;&quot;&gt;Save state into PCB2&lt;/font&gt;" style="rounded=0;whiteSpace=wrap;html=1;" parent="1" vertex="1">
          <mxGeometry x="390" y="460" width="150" height="30" as="geometry" />
        </mxCell>
        <mxCell id="Lj92PHvefBwDU4czDofk-10" value="&lt;font style=&quot;font-size: 10px;&quot;&gt;Restore state from PCB1&lt;/font&gt;" style="rounded=0;whiteSpace=wrap;html=1;" parent="1" vertex="1">
          <mxGeometry x="390" y="510" width="150" height="30" as="geometry" />
        </mxCell>
        <mxCell id="Lj92PHvefBwDU4czDofk-11" value="" style="endArrow=none;html=1;rounded=0;" parent="1" edge="1">
          <mxGeometry width="50" height="50" relative="1" as="geometry">
            <mxPoint x="310" y="320" as="sourcePoint" />
            <mxPoint x="470" y="320" as="targetPoint" />
          </mxGeometry>
        </mxCell>
        <mxCell id="Lj92PHvefBwDU4czDofk-12" value="" style="endArrow=none;html=1;rounded=0;exitX=0.5;exitY=0;exitDx=0;exitDy=0;" parent="1" source="Lj92PHvefBwDU4czDofk-7" edge="1">
          <mxGeometry width="50" height="50" relative="1" as="geometry">
            <mxPoint x="530" y="340" as="sourcePoint" />
            <mxPoint x="465" y="320" as="targetPoint" />
          </mxGeometry>
        </mxCell>
        <mxCell id="Lj92PHvefBwDU4czDofk-13" value="" style="endArrow=none;html=1;rounded=0;" parent="1" source="Lj92PHvefBwDU4czDofk-8" target="Lj92PHvefBwDU4czDofk-7" edge="1">
          <mxGeometry width="50" height="50" relative="1" as="geometry">
            <mxPoint x="650" y="440.0000000000001" as="sourcePoint" />
            <mxPoint x="640" y="330" as="targetPoint" />
          </mxGeometry>
        </mxCell>
        <mxCell id="Lj92PHvefBwDU4czDofk-14" value="" style="endArrow=none;html=1;rounded=0;exitX=0.5;exitY=0;exitDx=0;exitDy=0;" parent="1" source="Lj92PHvefBwDU4czDofk-10" target="Lj92PHvefBwDU4czDofk-9" edge="1">
          <mxGeometry width="50" height="50" relative="1" as="geometry">
            <mxPoint x="590" y="485.0000000000001" as="sourcePoint" />
            <mxPoint x="720" y="465" as="targetPoint" />
          </mxGeometry>
        </mxCell>
        <mxCell id="Lj92PHvefBwDU4czDofk-16" value="" style="endArrow=none;html=1;rounded=0;startArrow=none;" parent="1" source="Lj92PHvefBwDU4czDofk-17" edge="1">
          <mxGeometry width="50" height="50" relative="1" as="geometry">
            <mxPoint x="640" y="560" as="sourcePoint" />
            <mxPoint x="640" y="190.0000000000001" as="targetPoint" />
          </mxGeometry>
        </mxCell>
        <mxCell id="Lj92PHvefBwDU4czDofk-18" value="Executing" style="text;html=1;strokeColor=none;fillColor=none;align=center;verticalAlign=middle;whiteSpace=wrap;rounded=0;" parent="1" vertex="1">
          <mxGeometry x="650" y="415" width="60" height="30" as="geometry" />
        </mxCell>
        <mxCell id="Lj92PHvefBwDU4czDofk-19" value="Idle" style="text;html=1;strokeColor=none;fillColor=none;align=center;verticalAlign=middle;whiteSpace=wrap;rounded=0;" parent="1" vertex="1">
          <mxGeometry x="640" y="270" width="60" height="30" as="geometry" />
        </mxCell>
        <mxCell id="Lj92PHvefBwDU4czDofk-20" value="" style="rounded=0;whiteSpace=wrap;html=1;" parent="1" vertex="1">
          <mxGeometry x="300" y="560" width="20" height="100" as="geometry" />
        </mxCell>
        <mxCell id="Lj92PHvefBwDU4czDofk-21" value="Executing" style="text;html=1;strokeColor=none;fillColor=none;align=center;verticalAlign=middle;whiteSpace=wrap;rounded=0;" parent="1" vertex="1">
          <mxGeometry x="240" y="560" width="60" height="30" as="geometry" />
        </mxCell>
        <mxCell id="Lj92PHvefBwDU4czDofk-22" value="" style="endArrow=none;html=1;rounded=0;" parent="1" target="Lj92PHvefBwDU4czDofk-17" edge="1">
          <mxGeometry width="50" height="50" relative="1" as="geometry">
            <mxPoint x="640" y="650" as="sourcePoint" />
            <mxPoint x="640" y="190.0000000000001" as="targetPoint" />
          </mxGeometry>
        </mxCell>
        <mxCell id="Lj92PHvefBwDU4czDofk-17" value="" style="rounded=0;whiteSpace=wrap;html=1;" parent="1" vertex="1">
          <mxGeometry x="630" y="410" width="20" height="40" as="geometry" />
        </mxCell>
        <mxCell id="Lj92PHvefBwDU4czDofk-23" value="Idle" style="text;html=1;strokeColor=none;fillColor=none;align=center;verticalAlign=middle;whiteSpace=wrap;rounded=0;" parent="1" vertex="1">
          <mxGeometry x="640" y="500" width="60" height="30" as="geometry" />
        </mxCell>
        <mxCell id="Lj92PHvefBwDU4czDofk-24" value="" style="endArrow=none;html=1;rounded=0;entryX=0;entryY=0.25;entryDx=0;entryDy=0;" parent="1" target="Lj92PHvefBwDU4czDofk-17" edge="1">
          <mxGeometry width="50" height="50" relative="1" as="geometry">
            <mxPoint x="470" y="420" as="sourcePoint" />
            <mxPoint x="620" y="415.0000000000001" as="targetPoint" />
          </mxGeometry>
        </mxCell>
        <mxCell id="Lj92PHvefBwDU4czDofk-25" value="" style="endArrow=none;html=1;rounded=0;entryX=0;entryY=0.75;entryDx=0;entryDy=0;" parent="1" target="Lj92PHvefBwDU4czDofk-17" edge="1">
          <mxGeometry width="50" height="50" relative="1" as="geometry">
            <mxPoint x="460" y="440" as="sourcePoint" />
            <mxPoint x="620" y="445" as="targetPoint" />
          </mxGeometry>
        </mxCell>
        <mxCell id="Lj92PHvefBwDU4czDofk-26" value="" style="endArrow=none;html=1;rounded=0;" parent="1" source="Lj92PHvefBwDU4czDofk-9" edge="1">
          <mxGeometry width="50" height="50" relative="1" as="geometry">
            <mxPoint x="490" y="390.0000000000001" as="sourcePoint" />
            <mxPoint x="465" y="440" as="targetPoint" />
          </mxGeometry>
        </mxCell>
        <mxCell id="Lj92PHvefBwDU4czDofk-27" value="" style="endArrow=none;html=1;rounded=0;" parent="1" edge="1">
          <mxGeometry width="50" height="50" relative="1" as="geometry">
            <mxPoint x="310" y="550.0000000000001" as="sourcePoint" />
            <mxPoint x="470" y="550" as="targetPoint" />
          </mxGeometry>
        </mxCell>
        <mxCell id="Lj92PHvefBwDU4czDofk-28" value="" style="endArrow=none;html=1;rounded=0;" parent="1" target="Lj92PHvefBwDU4czDofk-10" edge="1">
          <mxGeometry width="50" height="50" relative="1" as="geometry">
            <mxPoint x="465" y="550" as="sourcePoint" />
            <mxPoint x="490" y="370.0000000000001" as="targetPoint" />
          </mxGeometry>
        </mxCell>
        <mxCell id="Lj92PHvefBwDU4czDofk-29" value="Scheduler" style="text;html=1;strokeColor=none;fillColor=none;align=center;verticalAlign=middle;whiteSpace=wrap;rounded=0;" parent="1" vertex="1">
          <mxGeometry x="450" y="280" width="60" height="30" as="geometry" />
        </mxCell>
        <mxCell id="Lj92PHvefBwDU4czDofk-30" value="&lt;font style=&quot;font-size: 10px;&quot;&gt;Interrupt or sycall&lt;/font&gt;" style="text;html=1;strokeColor=none;fillColor=none;align=center;verticalAlign=middle;whiteSpace=wrap;rounded=0;" parent="1" vertex="1">
          <mxGeometry x="320" y="290" width="140" height="30" as="geometry" />
        </mxCell>
        <mxCell id="Lj92PHvefBwDU4czDofk-32" value="&lt;font style=&quot;font-size: 10px;&quot;&gt;Interrupt or sycall&lt;/font&gt;" style="text;html=1;strokeColor=none;fillColor=none;align=center;verticalAlign=middle;whiteSpace=wrap;rounded=0;" parent="1" vertex="1">
          <mxGeometry x="520" y="443" width="140" height="15" as="geometry" />
        </mxCell>
        <mxCell id="Lj92PHvefBwDU4czDofk-33" value="" style="endArrow=none;html=1;rounded=0;" parent="1" edge="1">
          <mxGeometry width="50" height="50" relative="1" as="geometry">
            <mxPoint x="470" y="420" as="sourcePoint" />
            <mxPoint x="480" y="410" as="targetPoint" />
            <Array as="points">
              <mxPoint x="470" y="410" />
            </Array>
          </mxGeometry>
        </mxCell>
      </root>
    </mxGraphModel>
  </diagram>
</mxfile>
